<svg width="176" height="28" viewBox="0 0 176 28" fill="none" xmlns="http://www.w3.org/2000/svg">
<path d="M0 27.0364V0.751009H16.9728V4.61871H4.80646V11.9786H14.6447V15.7712H4.80646V27.0364H0Z" fill="#FCFCFC"/>
<path d="M20.5695 27.0364V8.41131H24.8502L25.3008 11.9035C25.9767 10.7019 26.8904 9.75061 28.042 9.04967C29.2186 8.32369 30.5954 7.9607 32.1726 7.9607V13.03H30.8207C29.7693 13.03 28.8306 13.1927 28.0044 13.5182C27.1783 13.8436 26.5275 14.4069 26.0518 15.2079C25.6012 16.009 25.3759 17.123 25.3759 18.5499V27.0364H20.5695Z" fill="#FCFCFC"/>
<path d="M41.8788 27.487C40.2766 27.487 38.9623 27.2366 37.936 26.7359C36.9096 26.2102 36.1461 25.5218 35.6454 24.6707C35.1447 23.8195 34.8944 22.8808 34.8944 21.8544C34.8944 20.1271 35.5703 18.7252 36.9221 17.6487C38.2739 16.5723 40.3016 16.0341 43.0053 16.0341H47.7366V15.5835C47.7366 14.3067 47.3736 13.368 46.6477 12.7672C45.9217 12.1664 45.0205 11.866 43.944 11.866C42.9677 11.866 42.1166 12.1038 41.3906 12.5794C40.6646 13.03 40.214 13.7059 40.0388 14.6071H35.345C35.4701 13.2553 35.9208 12.0787 36.6968 11.0774C37.4979 10.076 38.5243 9.31252 39.7759 8.78681C41.0276 8.23607 42.4295 7.9607 43.9816 7.9607C46.6352 7.9607 48.7255 8.6241 50.2525 9.95088C51.7796 11.2777 52.5431 13.1552 52.5431 15.5835V27.0364H48.4501L47.9995 24.0323C47.4488 25.0337 46.6727 25.8598 45.6714 26.5106C44.695 27.1615 43.4309 27.487 41.8788 27.487ZM42.9677 23.7319C44.3446 23.7319 45.4085 23.2813 46.1595 22.3801C46.9356 21.4789 47.4237 20.3649 47.624 19.0381H43.531C42.2543 19.0381 41.3405 19.2759 40.7898 19.7516C40.2391 20.2022 39.9637 20.7654 39.9637 21.4413C39.9637 22.1673 40.2391 22.7306 40.7898 23.1311C41.3405 23.5316 42.0665 23.7319 42.9677 23.7319Z" fill="#FCFCFC"/>
<path d="M57.1298 27.0364V8.41131H61.373L61.7485 11.5655C62.3243 10.4641 63.1504 9.58789 64.2269 8.93702C65.3284 8.28614 66.6176 7.9607 68.0946 7.9607C70.3977 7.9607 72.1876 8.68668 73.4643 10.1386C74.741 11.5906 75.3794 13.7184 75.3794 16.5222V27.0364H70.5729V16.9728C70.5729 15.3707 70.2475 14.144 69.5966 13.2929C68.9457 12.4417 67.9319 12.0162 66.555 12.0162C65.2032 12.0162 64.0892 12.4918 63.213 13.4431C62.3619 14.3944 61.9363 15.7211 61.9363 17.4234V27.0364H57.1298Z" fill="#FCFCFC"/>
<path d="M89.1003 27.487C87.1977 27.487 85.5204 27.0739 84.0685 26.2478C82.6165 25.4217 81.465 24.2701 80.6138 22.7931C79.7877 21.3162 79.3747 19.6264 79.3747 17.7238C79.3747 15.8213 79.7877 14.1315 80.6138 12.6545C81.465 11.1775 82.6165 10.026 84.0685 9.19987C85.5204 8.37376 87.1977 7.9607 89.1003 7.9607C91.4785 7.9607 93.4811 8.58654 95.1083 9.83823C96.7355 11.0649 97.7744 12.7672 98.225 14.9451H93.1557C92.9054 14.0439 92.4047 13.3429 91.6537 12.8423C90.9277 12.3166 90.064 12.0537 89.0627 12.0537C87.7359 12.0537 86.6094 12.5544 85.6832 13.5557C84.7569 14.5571 84.2938 15.9464 84.2938 17.7238C84.2938 19.5012 84.7569 20.8906 85.6832 21.8919C86.6094 22.8933 87.7359 23.394 89.0627 23.394C90.064 23.394 90.9277 23.1436 91.6537 22.6429C92.4047 22.1423 92.9054 21.4288 93.1557 20.5026H98.225C97.7744 22.6054 96.7355 24.2952 95.1083 25.5719C93.4811 26.8486 91.4785 27.487 89.1003 27.487Z" fill="#FCFCFC"/>
<path d="M102.491 27.0364V0H107.298V11.2651C107.923 10.2388 108.762 9.43769 109.813 8.86191C110.89 8.26111 112.117 7.9607 113.493 7.9607C115.797 7.9607 117.574 8.68668 118.826 10.1386C120.102 11.5906 120.741 13.7184 120.741 16.5222V27.0364H115.972V16.9728C115.972 15.3707 115.646 14.144 114.995 13.2929C114.37 12.4417 113.368 12.0162 111.991 12.0162C110.64 12.0162 109.513 12.4918 108.612 13.4431C107.736 14.3944 107.298 15.7211 107.298 17.4234V27.0364H102.491Z" fill="#FCFCFC"/>
<path d="M131.758 27.487C130.156 27.487 128.841 27.2366 127.815 26.7359C126.789 26.2102 126.025 25.5218 125.525 24.6707C125.024 23.8195 124.774 22.8808 124.774 21.8544C124.774 20.1271 125.449 18.7252 126.801 17.6487C128.153 16.5723 130.181 16.0341 132.884 16.0341H137.616V15.5835C137.616 14.3067 137.253 13.368 136.527 12.7672C135.801 12.1664 134.9 11.866 133.823 11.866C132.847 11.866 131.996 12.1038 131.27 12.5794C130.544 13.03 130.093 13.7059 129.918 14.6071H125.224C125.349 13.2553 125.8 12.0787 126.576 11.0774C127.377 10.076 128.403 9.31252 129.655 8.78681C130.907 8.23607 132.309 7.9607 133.861 7.9607C136.514 7.9607 138.605 8.6241 140.132 9.95088C141.659 11.2777 142.422 13.1552 142.422 15.5835V27.0364H138.329L137.879 24.0323C137.328 25.0337 136.552 25.8598 135.55 26.5106C134.574 27.1615 133.31 27.487 131.758 27.487ZM132.847 23.7319C134.224 23.7319 135.288 23.2813 136.039 22.3801C136.815 21.4789 137.303 20.3649 137.503 19.0381H133.41C132.133 19.0381 131.22 19.2759 130.669 19.7516C130.118 20.2022 129.843 20.7654 129.843 21.4413C129.843 22.1673 130.118 22.7306 130.669 23.1311C131.22 23.5316 131.946 23.7319 132.847 23.7319Z" fill="#FCFCFC"/>
<path d="M149.6 5.51992C148.724 5.51992 147.998 5.25707 147.422 4.73136C146.871 4.20566 146.596 3.54226 146.596 2.74119C146.596 1.94011 146.871 1.28923 147.422 0.788559C147.998 0.262853 148.724 0 149.6 0C150.476 0 151.19 0.262853 151.74 0.788559C152.316 1.28923 152.604 1.94011 152.604 2.74119C152.604 3.54226 152.316 4.20566 151.74 4.73136C151.19 5.25707 150.476 5.51992 149.6 5.51992ZM147.197 27.0364V8.41131H152.003V27.0364H147.197Z" fill="#FCFCFC"/>
<path d="M157.02 27.0364V8.41131H161.263L161.639 11.5655C162.214 10.4641 163.041 9.58789 164.117 8.93702C165.219 8.28614 166.508 7.9607 167.985 7.9607C170.288 7.9607 172.078 8.68668 173.354 10.1386C174.631 11.5906 175.27 13.7184 175.27 16.5222V27.0364H170.463V16.9728C170.463 15.3707 170.138 14.144 169.487 13.2929C168.836 12.4417 167.822 12.0162 166.445 12.0162C165.093 12.0162 163.979 12.4918 163.103 13.4431C162.252 14.3944 161.826 15.7211 161.826 17.4234V27.0364H157.02Z" fill="#FCFCFC"/>
</svg>
