<svg width="30" height="30" viewBox="0 0 30 30" fill="none" xmlns="http://www.w3.org/2000/svg">
<path d="M14.325 17.1627C16.2649 17.1627 17.8375 15.5901 17.8375 13.6502C17.8375 11.7103 16.2649 10.1377 14.325 10.1377C12.3851 10.1377 10.8125 11.7103 10.8125 13.6502C10.8125 15.5901 12.3851 17.1627 14.325 17.1627Z" stroke="white" stroke-width="1.5" stroke-linecap="round" stroke-linejoin="round"/>
<path d="M20.8129 25.2504C20.8129 22.3379 17.9129 19.9629 14.3254 19.9629C10.7379 19.9629 7.83789 22.3254 7.83789 25.2504" stroke="white" stroke-width="1.5" stroke-linecap="round" stroke-linejoin="round"/>
<path d="M26.25 15.625C26.25 22.1875 20.9375 27.5 14.375 27.5C7.8125 27.5 2.5 22.1875 2.5 15.625C2.5 9.0625 7.8125 3.75 14.375 3.75C16.0125 3.75 17.575 4.07499 19 4.67499C18.8375 5.17499 18.75 5.7 18.75 6.25C18.75 7.1875 19.0125 8.075 19.475 8.825C19.725 9.25 20.05 9.63746 20.425 9.96246C21.3 10.7625 22.4625 11.25 23.75 11.25C24.3 11.25 24.825 11.1625 25.3125 10.9875C25.9125 12.4125 26.25 13.9875 26.25 15.625Z" stroke="white" stroke-width="1.5" stroke-linecap="round" stroke-linejoin="round"/>
<path d="M28.75 6.25C28.75 6.65 28.7 7.03749 28.6 7.41249C28.4875 7.91249 28.2875 8.4 28.025 8.825C27.425 9.8375 26.4625 10.625 25.3125 10.9875C24.825 11.1625 24.3 11.25 23.75 11.25C22.4625 11.25 21.3 10.7625 20.425 9.96246C20.05 9.63746 19.725 9.25 19.475 8.825C19.0125 8.075 18.75 7.1875 18.75 6.25C18.75 5.7 18.8375 5.17499 19 4.67499C19.2375 3.94999 19.6375 3.30003 20.1625 2.76253C21.075 1.82503 22.35 1.25 23.75 1.25C25.225 1.25 26.5625 1.88752 27.4625 2.91252C28.2625 3.80002 28.75 4.975 28.75 6.25Z" stroke="white" stroke-width="1.5" stroke-miterlimit="10" stroke-linecap="round" stroke-linejoin="round"/>
<path d="M25.6117 6.22461H21.8867" stroke="white" stroke-width="1.5" stroke-miterlimit="10" stroke-linecap="round" stroke-linejoin="round"/>
<path d="M23.75 4.3999V8.13739" stroke="white" stroke-width="1.5" stroke-miterlimit="10" stroke-linecap="round" stroke-linejoin="round"/>
</svg>
